<svg width="100" height="100" viewBox="0 0 100 100" fill="none" xmlns="http://www.w3.org/2000/svg">
<path d="M89.5522 44.1176C89.5522 19.7522 69.5052 0 44.7761 0C20.047 0 0 19.7522 0 44.1176V56.6176C0 60.6785 3.34115 63.9706 7.46269 63.9706H82.0895C86.211 63.9706 89.5522 60.6785 89.5522 56.6176V44.1176Z" fill="#FFF2F1"/>
<path d="M73.8806 100C88.306 100 100 88.4779 100 74.2647C100 60.0515 88.306 48.5294 73.8806 48.5294C59.4553 48.5294 47.7612 60.0515 47.7612 74.2647C47.7612 88.4779 59.4553 100 73.8806 100Z" fill="#F3F3FB"/>
<path d="M64.9301 74.1619L74.2801 59.965C75.1537 58.6385 77.2459 59.4194 77.0082 60.9832L74.4876 77.5685H66.8082C65.0327 77.5685 63.9636 75.6296 64.9301 74.1619Z" fill="white"/>
<path d="M84.0452 74.2649L74.6952 88.4618C73.8217 89.7883 71.7294 89.0074 71.9672 87.4436L74.4878 70.8583H82.1672C83.9427 70.8583 85.0117 72.7974 84.0452 74.2649Z" fill="white"/>
<path d="M77.6119 45.5883C77.6119 27.7202 62.9109 13.2354 44.7761 13.2354C26.6414 13.2354 11.9403 27.7202 11.9403 45.5883" stroke="white" stroke-width="4" stroke-linecap="round"/>
<path d="M11.9403 45.5883C11.9403 27.7202 26.6414 13.2354 44.7761 13.2354C53.8861 13.2354 62.1297 16.8908 68.0784 22.7942" stroke="#FF6492" stroke-width="4" stroke-linecap="round"/>
<path d="M48.2936 50.3241C46.0681 52.5169 42.3739 52.4323 40.0424 50.1351C37.7109 47.8379 37.6249 44.198 39.8505 42.0053C41.3676 40.5104 52.1857 33.7173 58.9188 29.5442C60.2543 28.7166 61.7806 30.2204 60.9406 31.5363C56.7052 38.1704 49.8108 48.8294 48.2936 50.3241Z" fill="#FF6492"/>
</svg>
