<svg width="100" height="100" viewBox="0 0 100 100" fill="none" xmlns="http://www.w3.org/2000/svg">
<path d="M75 21.6666H28.3333C24.6514 21.6666 21.6666 24.6514 21.6666 28.3333V75C21.6666 78.6819 24.6514 81.6666 28.3333 81.6666H75C78.6819 81.6666 81.6666 78.6819 81.6666 75V28.3333C81.6666 24.6514 78.6819 21.6666 75 21.6666Z" stroke="#F3F3FB" stroke-width="3" stroke-linecap="round" stroke-linejoin="round"/>
<path d="M43.3333 0H6.66667C2.98477 0 0 2.98477 0 6.66667V43.3333C0 47.0152 2.98477 50 6.66667 50H43.3333C47.0152 50 50 47.0152 50 43.3333V6.66667C50 2.98477 47.0152 0 43.3333 0Z" fill="#FFF2F1"/>
<path d="M90 63.3334H70C66.3181 63.3334 63.3334 66.3181 63.3334 70V90C63.3334 93.6819 66.3181 96.6667 70 96.6667H90C93.6819 96.6667 96.6667 93.6819 96.6667 90V70C96.6667 66.3181 93.6819 63.3334 90 63.3334Z" fill="#F3F3FB"/>
<path d="M79.1667 33.3333C84.2293 33.3333 88.3333 29.2293 88.3333 24.1667C88.3333 19.1041 84.2293 15 79.1667 15C74.1041 15 70 19.1041 70 24.1667C70 29.2293 74.1041 33.3333 79.1667 33.3333Z" fill="#FF6492"/>
<path d="M24.1667 88.3333C29.2293 88.3333 33.3333 84.2293 33.3333 79.1667C33.3333 74.1041 29.2293 70 24.1667 70C19.1041 70 15 74.1041 15 79.1667C15 84.2293 19.1041 88.3333 24.1667 88.3333Z" fill="#FF6492"/>
</svg>
