<svg width="100" height="100" viewBox="0 0 100 100" fill="none" xmlns="http://www.w3.org/2000/svg">
<path d="M49.8563 50.0121L0.630915 57.8062C-3.71795 30.5269 14.8804 4.91771 42.084 0.649508C44.4896 0.185573 47.358 0 49.8563 0V50.0121Z" fill="#F3F3FB"/>
<path d="M49.8599 50.0122L95.3841 70.3325C84.1882 95.5706 54.7639 106.891 29.596 95.6635C13.5886 88.5187 3.31786 75.1575 0.634521 57.8063L49.8599 50.0122Z" fill="#FFF2F1"/>
<path d="M49.858 50.0122L87.5173 17.2584C100.656 32.3828 103.617 52.0535 95.4748 70.4253L49.858 50.0122Z" fill="#FF6492"/>
<path d="M49.858 50.0122L63.5523 1.94849C73.1753 4.7321 80.8552 9.64981 87.4247 17.1655L49.858 50.0122Z" fill="#FF95B4"/>
<path d="M49.858 50.0122V0C54.8546 0 58.8334 0.556722 63.5523 1.94852L49.858 50.0122Z" fill="#F3F3FB"/>
<path d="M49.8586 79.3329C65.8025 79.3329 78.7276 66.3718 78.7276 50.3834C78.7276 34.395 65.8025 21.4338 49.8586 21.4338C33.9147 21.4338 20.9896 34.395 20.9896 50.3834C20.9896 66.3718 33.9147 79.3329 49.8586 79.3329Z" fill="white"/>
</svg>
