<svg width="100" height="100" viewBox="0 0 100 100" fill="none" xmlns="http://www.w3.org/2000/svg">
<path d="M50 15V51.6667" stroke="#F3F3FB" stroke-width="3" stroke-linecap="round" stroke-linejoin="round"/>
<path d="M83.3333 90V60C83.3333 56.3182 80.3484 53.3334 76.6666 53.3334H23.3333C19.6515 53.3334 16.6666 56.3182 16.6666 60V90" stroke="#F3F3FB" stroke-width="3" stroke-linecap="round" stroke-linejoin="round"/>
<path d="M60 0H40C36.3181 0 33.3334 2.98477 33.3334 6.66667V26.6667C33.3334 30.3486 36.3181 33.3333 40 33.3333H60C63.6819 33.3333 66.6667 30.3486 66.6667 26.6667V6.66667C66.6667 2.98477 63.6819 0 60 0Z" fill="#FF6492"/>
<path d="M93.3333 68.3334H73.3333C69.6514 68.3334 66.6666 71.3181 66.6666 75V95C66.6666 98.6819 69.6514 101.667 73.3333 101.667H93.3333C97.0152 101.667 100 98.6819 100 95V75C100 71.3181 97.0152 68.3334 93.3333 68.3334Z" fill="#F3F3FB"/>
<path d="M26.6667 68.3334H6.66667C2.98477 68.3334 0 71.3181 0 75V95C0 98.6819 2.98477 101.667 6.66667 101.667H26.6667C30.3486 101.667 33.3333 98.6819 33.3333 95V75C33.3333 71.3181 30.3486 68.3334 26.6667 68.3334Z" fill="#F3F3FB"/>
</svg>
